#Comment line ignore any data following # character 
#Hierarchical Translation and Rotation (.htr) file 
[Header]	
#Header keywords are followed by a single value 
FileType HTR		#Single word string
DataType HTRS		#Translation followed by rotation and scale data
FileVersion 1		#integer
NumSegments 84		#integer
NumFrames 2		#integer
DataFrameRate 30		#integer, data frame rate in this file
EulerRotationOrder ZYX
CalibrationUnits mm
RotationUnits Degrees
GlobalAxisofGravity Y
BoneLengthAxis Y
ScaleFactor 1.00
[SegmentNames&Hierarchy]
#CHILD	PARENT
MASTER GLOBAL
root MASTER
chest root
L_mid_tent01 root
R_mid_tent01 root
spine01 root
Bip01_Neck chest
L_humerus chest
R_humerus chest
weapon_bone chest
Bip01_Head Bip01_Neck
eye_left_bone Bip01_Head
eye_right_bone Bip01_Head
L_forearm L_humerus
L_front_hand L_forearm
L_weapon_bone L_forearm
L_front_hand01_01 L_front_hand
L_front_hand02_01 L_front_hand
L_front_hand03_01 L_front_hand
L_front_hand01_02 L_front_hand01_01
L_front_hand02_02 L_front_hand02_01
L_front_hand03_02 L_front_hand03_01
R_forearm R_humerus
R_front_hand R_forearm
R_weapon_bone R_forearm
R_front_hand01_01 R_front_hand
R_front_hand02_01 R_front_hand
R_front_hand03_01 R_front_hand
R_front_hand01_02 R_front_hand01_01
R_front_hand02_02 R_front_hand02_01
R_front_hand03_02 R_front_hand03_01
null_rope01_connect L_mid_tent01
Rope1_Seg01 null_rope01_connect
Rope1_Seg02 Rope1_Seg01
Rope1_Seg03 Rope1_Seg02
Rope1_Seg04 Rope1_Seg03
Rope1_Seg05 Rope1_Seg04
Rope1_Seg06 Rope1_Seg05
Rope1_Seg07 Rope1_Seg06
Rope1_Seg09 Rope1_Seg07
L_mid_hand01 Rope1_Seg09
L_mid_hand02 Rope1_Seg09
L_mid_hand03 Rope1_Seg09
null_rope02_connect R_mid_tent01
Rope2_Seg01 null_rope02_connect
Rope2_Seg02 Rope2_Seg01
Rope2_Seg03 Rope2_Seg02
Rope2_Seg04 Rope2_Seg03
Rope2_Seg05 Rope2_Seg04
Rope2_Seg06 Rope2_Seg05
Rope2_Seg07 Rope2_Seg06
Rope2_Seg09 Rope2_Seg07
R_mid_hand01 Rope2_Seg09
R_mid_hand02 Rope2_Seg09
R_mid_hand03 Rope2_Seg09
spine02 spine01
spine03 spine02
pelvis spine03
null_rope03_connect pelvis
null_rope04_connect pelvis
Rope3_Seg01 null_rope03_connect
Rope3_Seg02 Rope3_Seg01
Rope3_Seg03 Rope3_Seg02
Rope3_Seg04 Rope3_Seg03
Rope3_Seg05 Rope3_Seg04
Rope3_Seg06 Rope3_Seg05
Rope3_Seg07 Rope3_Seg06
Rope3_Seg08 Rope3_Seg07
Rope3_Seg09 Rope3_Seg08
R_rear_hand01 Rope3_Seg09
R_rear_hand02 Rope3_Seg09
R_rear_hand03 Rope3_Seg09
Rope4_Seg01 null_rope04_connect
Rope4_Seg02 Rope4_Seg01
Rope4_Seg03 Rope4_Seg02
Rope4_Seg04 Rope4_Seg03
Rope4_Seg05 Rope4_Seg04
Rope4_Seg06 Rope4_Seg05
Rope4_Seg07 Rope4_Seg06
Rope4_Seg08 Rope4_Seg07
Rope4_Seg09 Rope4_Seg08
L_rear_hand01 Rope4_Seg09
L_rear_hand02 Rope4_Seg09
L_rear_hand03 Rope4_Seg09
[BasePosition]
#SegmentName Tx, Ty, Tz, Rx, Ry, Rz, BoneLength
MASTER 0.000000 0.000000 0.000000 -90.000000 0.000000 0.000000 10.000000 
root 0.000000 0.000000 0.000000 0.000000 0.000000 0.000000 10.000000 
chest 0.000000 0.000000 0.000000 0.000000 0.000000 0.000000 10.000000 
L_mid_tent01 0.000000 0.000000 0.000000 0.000000 0.000000 0.000000 10.000000 
R_mid_tent01 0.000000 0.000000 0.000000 0.000000 0.000000 0.000000 10.000000 
spine01 0.000000 0.000000 0.000000 0.000000 0.000000 0.000000 10.000000 
Bip01_Neck 0.000000 0.000000 0.000000 0.000000 0.000000 0.000000 10.000000 
L_humerus 0.000000 0.000000 0.000000 0.000000 0.000000 0.000000 10.000000 
R_humerus 0.000000 0.000000 0.000000 0.000000 0.000000 0.000000 10.000000 
weapon_bone 0.000000 0.000000 0.000000 0.000000 0.000000 0.000000 10.000000 
Bip01_Head 0.000000 0.000000 0.000000 0.000000 0.000000 0.000000 10.000000 
eye_left_bone 0.000000 0.000000 0.000000 0.000000 0.000000 0.000000 10.000000 
eye_right_bone 0.000000 0.000000 0.000000 0.000000 0.000000 0.000000 10.000000 
L_forearm 0.000000 0.000000 0.000000 0.000000 0.000000 0.000000 10.000000 
L_front_hand 0.000000 0.000000 0.000000 0.000000 0.000000 0.000000 10.000000 
L_weapon_bone 0.000000 0.000000 0.000000 0.000000 0.000000 0.000000 10.000000 
L_front_hand01_01 0.000000 0.000000 0.000000 0.000000 0.000000 0.000000 10.000000 
L_front_hand02_01 0.000000 0.000000 0.000000 0.000000 0.000000 0.000000 10.000000 
L_front_hand03_01 0.000000 0.000000 0.000000 0.000000 0.000000 0.000000 10.000000 
L_front_hand01_02 0.000000 0.000000 0.000000 0.000000 0.000000 0.000000 10.000000 
L_front_hand02_02 0.000000 0.000000 0.000000 0.000000 0.000000 0.000000 10.000000 
L_front_hand03_02 0.000000 0.000000 0.000000 0.000000 0.000000 0.000000 10.000000 
R_forearm 0.000000 0.000000 0.000000 0.000000 0.000000 0.000000 10.000000 
R_front_hand 0.000000 0.000000 0.000000 0.000000 0.000000 0.000000 10.000000 
R_weapon_bone 0.000000 0.000000 0.000000 0.000000 0.000000 0.000000 10.000000 
R_front_hand01_01 0.000000 0.000000 0.000000 0.000000 0.000000 0.000000 10.000000 
R_front_hand02_01 0.000000 0.000000 0.000000 0.000000 0.000000 0.000000 10.000000 
R_front_hand03_01 0.000000 0.000000 0.000000 0.000000 0.000000 0.000000 10.000000 
R_front_hand01_02 0.000000 0.000000 0.000000 0.000000 0.000000 0.000000 10.000000 
R_front_hand02_02 0.000000 0.000000 0.000000 0.000000 0.000000 0.000000 10.000000 
R_front_hand03_02 0.000000 0.000000 0.000000 0.000000 0.000000 0.000000 10.000000 
null_rope01_connect 0.000000 0.000000 0.000000 0.000000 0.000000 0.000000 10.000000 
Rope1_Seg01 0.000000 0.000000 0.000000 0.000000 0.000000 0.000000 10.000000 
Rope1_Seg02 0.000000 0.000000 0.000000 0.000000 0.000000 0.000000 10.000000 
Rope1_Seg03 0.000000 0.000000 0.000000 0.000000 0.000000 0.000000 10.000000 
Rope1_Seg04 0.000000 0.000000 0.000000 0.000000 0.000000 0.000000 10.000000 
Rope1_Seg05 0.000000 0.000000 0.000000 0.000000 0.000000 0.000000 10.000000 
Rope1_Seg06 0.000000 0.000000 0.000000 0.000000 0.000000 0.000000 10.000000 
Rope1_Seg07 0.000000 0.000000 0.000000 0.000000 0.000000 0.000000 10.000000 
Rope1_Seg09 0.000000 0.000000 0.000000 0.000000 0.000000 0.000000 10.000000 
L_mid_hand01 0.000000 0.000000 0.000000 0.000000 0.000000 0.000000 10.000000 
L_mid_hand02 0.000000 0.000000 0.000000 0.000000 0.000000 0.000000 10.000000 
L_mid_hand03 0.000000 0.000000 0.000000 0.000000 0.000000 0.000000 10.000000 
null_rope02_connect 0.000000 0.000000 0.000000 0.000000 0.000000 0.000000 10.000000 
Rope2_Seg01 0.000000 0.000000 0.000000 0.000000 0.000000 0.000000 10.000000 
Rope2_Seg02 0.000000 0.000000 0.000000 0.000000 0.000000 0.000000 10.000000 
Rope2_Seg03 0.000000 0.000000 0.000000 0.000000 0.000000 0.000000 10.000000 
Rope2_Seg04 0.000000 0.000000 0.000000 0.000000 0.000000 0.000000 10.000000 
Rope2_Seg05 0.000000 0.000000 0.000000 0.000000 0.000000 0.000000 10.000000 
Rope2_Seg06 0.000000 0.000000 0.000000 0.000000 0.000000 0.000000 10.000000 
Rope2_Seg07 0.000000 0.000000 0.000000 0.000000 0.000000 0.000000 10.000000 
Rope2_Seg09 0.000000 0.000000 0.000000 0.000000 0.000000 0.000000 10.000000 
R_mid_hand01 0.000000 0.000000 0.000000 0.000000 0.000000 0.000000 10.000000 
R_mid_hand02 0.000000 0.000000 0.000000 0.000000 0.000000 0.000000 10.000000 
R_mid_hand03 0.000000 0.000000 0.000000 0.000000 0.000000 0.000000 10.000000 
spine02 0.000000 0.000000 0.000000 0.000000 0.000000 0.000000 10.000000 
spine03 0.000000 0.000000 0.000000 0.000000 0.000000 0.000000 10.000000 
pelvis 0.000000 0.000000 0.000000 0.000000 0.000000 0.000000 10.000000 
null_rope03_connect 0.000000 0.000000 0.000000 0.000000 0.000000 0.000000 10.000000 
null_rope04_connect 0.000000 0.000000 0.000000 0.000000 0.000000 0.000000 10.000000 
Rope3_Seg01 0.000000 0.000000 0.000000 0.000000 0.000000 0.000000 10.000000 
Rope3_Seg02 0.000000 0.000000 0.000000 0.000000 0.000000 0.000000 10.000000 
Rope3_Seg03 0.000000 0.000000 0.000000 0.000000 0.000000 0.000000 10.000000 
Rope3_Seg04 0.000000 0.000000 0.000000 0.000000 0.000000 0.000000 10.000000 
Rope3_Seg05 0.000000 0.000000 0.000000 0.000000 0.000000 0.000000 10.000000 
Rope3_Seg06 0.000000 0.000000 0.000000 0.000000 0.000000 0.000000 10.000000 
Rope3_Seg07 0.000000 0.000000 0.000000 0.000000 0.000000 0.000000 10.000000 
Rope3_Seg08 0.000000 0.000000 0.000000 0.000000 0.000000 0.000000 10.000000 
Rope3_Seg09 0.000000 0.000000 0.000000 0.000000 0.000000 0.000000 10.000000 
R_rear_hand01 0.000000 0.000000 0.000000 0.000000 0.000000 0.000000 10.000000 
R_rear_hand02 0.000000 0.000000 0.000000 0.000000 0.000000 0.000000 10.000000 
R_rear_hand03 0.000000 0.000000 0.000000 0.000000 0.000000 0.000000 10.000000 
Rope4_Seg01 0.000000 0.000000 0.000000 0.000000 0.000000 0.000000 10.000000 
Rope4_Seg02 0.000000 0.000000 0.000000 0.000000 0.000000 0.000000 10.000000 
Rope4_Seg03 0.000000 0.000000 0.000000 0.000000 0.000000 0.000000 10.000000 
Rope4_Seg04 0.000000 0.000000 0.000000 0.000000 0.000000 0.000000 10.000000 
Rope4_Seg05 0.000000 0.000000 0.000000 0.000000 0.000000 0.000000 10.000000 
Rope4_Seg06 0.000000 0.000000 0.000000 0.000000 0.000000 0.000000 10.000000 
Rope4_Seg07 0.000000 0.000000 0.000000 0.000000 0.000000 0.000000 10.000000 
Rope4_Seg08 0.000000 0.000000 0.000000 0.000000 0.000000 0.000000 10.000000 
Rope4_Seg09 0.000000 0.000000 0.000000 0.000000 0.000000 0.000000 10.000000 
L_rear_hand01 0.000000 0.000000 0.000000 0.000000 0.000000 0.000000 10.000000 
L_rear_hand02 0.000000 0.000000 0.000000 0.000000 0.000000 0.000000 10.000000 
L_rear_hand03 0.000000 0.000000 0.000000 0.000000 0.000000 0.000000 10.000000 
#Beginning of Data. Separated by tabs
#Fr	Tx	Ty	Tz	Rx	Ry	Rz	SF
[MASTER]
11 -0.000186 1250.000000 0.000000 0.001660 0.001660 0.001660 1250.000000
12 -0.000205 1375.000244 0.000000 0.001660 0.001660 0.001660 1375.000244
[root]
11 -11.613022 -78.455887 1465.848511 -91.728889 -11.584497 -89.471619 1467.992554
12 -12.702634 -78.746185 1461.198120 -91.728889 -11.584497 -89.471619 1463.373535
[chest]
11 -84.512650 -34.090519 0.000000 -2.189215 -0.130348 166.549850 91.129311
12 -84.512650 -34.090519 0.000000 -2.188879 -0.133564 166.510056 91.129311
[L_mid_tent01]
11 27.299093 22.179258 -249.918686 -20.425734 8.585328 14.294838 252.381683
12 27.299097 22.179258 -249.918686 -20.407898 8.258739 14.417683 252.381683
[R_mid_tent01]
11 23.228794 24.509907 226.238495 -165.625336 -11.658326 25.752693 228.744751
12 23.228794 24.509907 226.238495 -165.659286 -11.077939 25.902752 228.744751
[spine01]
11 -0.361383 -0.195265 0.000000 0.001955 0.001298 22.831696 0.410763
12 -0.361383 -0.195265 0.000000 0.001956 0.001298 22.863644 0.410763
[Bip01_Neck]
11 165.484543 71.581718 0.000119 176.643677 -1.657967 43.431911 180.302734
12 165.484543 71.581718 0.000119 176.643677 -1.657967 43.431911 180.302734
[L_humerus]
11 -13.983130 -135.272980 -120.471481 -178.201294 50.564838 -87.535210 181.680161
12 -13.983130 -135.272980 -120.471481 -179.009430 43.300392 -88.225044 181.680161
[R_humerus]
11 -13.983309 -135.273102 125.287651 174.599609 -51.415195 -78.095116 184.909012
12 -13.983309 -135.273102 125.287651 176.759232 -44.680279 -80.168304 184.909012
[weapon_bone]
11 235.964890 -300.705902 0.000000 0.000000 -89.951546 -128.212341 382.234833
12 235.964890 -300.705902 0.000000 0.000000 -89.951546 -128.212341 382.234833
[Bip01_Head]
11 213.457642 185.677490 12.267536 4.983087 9.611637 -43.777290 283.179779
12 213.484787 185.602417 13.237545 4.982603 9.099526 -43.793491 283.194702
[eye_left_bone]
11 -24.626970 125.451866 -64.772606 0.000000 -90.000000 -99.840431 143.318359
12 -24.626970 125.451866 -64.772606 0.000000 -90.000000 -99.840431 143.318359
[eye_right_bone]
11 -24.626970 125.451866 64.327362 0.000000 -89.965736 80.156380 143.117676
12 -24.626970 125.451866 64.327362 0.000000 -89.965736 80.156380 143.117676
[L_forearm]
11 322.776093 0.000000 -0.000119 0.000430 -0.002308 -111.110794 322.776093
12 322.776093 0.000000 -0.000119 0.000431 -0.002307 -111.167755 322.776093
[L_front_hand]
11 241.149185 -0.042021 -3.300071 -178.667953 -1.835447 -27.422350 241.171753
12 241.149185 -0.042021 -3.300071 -178.667953 -1.835447 -27.422350 241.171753
[L_weapon_bone]
11 156.183838 0.000000 0.000000 0.000014 0.000007 0.000001 156.183838
12 156.183838 0.000000 0.000000 0.000014 0.000007 0.000001 156.183838
[L_front_hand01_01]
11 86.095154 20.947098 -0.655860 -0.282467 -0.528169 66.067474 88.609184
12 86.095154 20.947098 -0.655860 -0.274633 -0.532782 65.272827 88.609184
[L_front_hand02_01]
11 86.935165 -11.437475 24.513514 141.960785 -54.937954 -46.642345 91.046425
12 86.935165 -11.437475 24.513514 141.090271 -54.445614 -45.572052 91.046425
[L_front_hand03_01]
11 86.637497 -14.123976 -20.424902 -142.303543 53.163303 -48.671032 90.126129
12 86.637497 -14.123976 -20.424902 -141.476303 52.677540 -47.637543 90.126129
[L_front_hand01_02]
11 71.020905 -0.000179 0.000030 0.000315 -0.002326 -105.442802 71.020905
12 71.020905 -0.000179 0.000030 0.000315 -0.002326 -105.419182 71.020905
[L_front_hand02_02]
11 71.020927 -0.000119 0.000060 0.000315 -0.002326 -105.442802 71.020927
12 71.020927 -0.000119 0.000060 0.000315 -0.002326 -105.419182 71.020927
[L_front_hand03_02]
11 71.020905 -0.000060 0.000060 0.000315 -0.002326 -105.442802 71.020905
12 71.020905 -0.000060 0.000060 0.000315 -0.002326 -105.419182 71.020905
[R_forearm]
11 322.776428 -0.000060 0.000030 0.201102 0.068184 -109.782852 322.776428
12 322.776428 -0.000060 0.000030 0.201080 0.068247 -109.819138 322.776428
[R_front_hand]
11 238.847015 -0.006795 2.210259 -2.635298 -10.645461 -26.312506 238.857239
12 238.847015 -0.006795 2.210259 -2.635298 -10.645461 -26.312506 238.857239
[R_weapon_bone]
11 155.664093 0.002503 -0.000030 0.003487 0.001180 -90.988930 155.664078
12 155.664093 0.002503 -0.000030 0.003487 0.001180 -90.988930 155.664078
[R_front_hand01_01]
11 87.624611 14.231146 22.918642 -141.947067 -54.924736 46.726738 91.683487
12 87.624611 14.231146 22.918642 -140.500656 -54.097115 44.955364 91.683487
[R_front_hand02_01]
11 89.356956 14.367283 -19.491137 142.634140 53.329124 49.315857 92.579636
12 89.356956 14.367283 -19.491137 141.255966 52.517570 47.591045 92.579636
[R_front_hand03_01]
11 87.286232 -22.307278 -0.143439 0.092230 -0.445770 -66.286453 90.091743
12 87.286232 -22.307278 -0.143439 0.080269 -0.445286 -64.968231 90.091743
[R_front_hand01_02]
11 71.020905 0.000060 0.000119 0.002323 -0.000334 106.381714 71.020905
12 71.020905 0.000060 0.000119 0.002323 -0.000334 106.381714 71.020905
[R_front_hand02_02]
11 71.020844 -0.000030 -0.000119 0.002323 -0.000334 106.381714 71.020836
12 71.020844 -0.000030 -0.000119 0.002323 -0.000334 106.381714 71.020836
[R_front_hand03_02]
11 71.020905 0.000000 0.000030 0.002323 -0.000334 106.381714 71.020905
12 71.020905 0.000000 0.000030 0.002323 -0.000334 106.381714 71.020905
[null_rope01_connect]
11 328.732483 0.000000 -0.000238 -162.519073 -66.365021 -111.594109 328.732483
12 328.732483 0.000000 -0.000238 -163.336227 -66.490349 -110.845665 328.732483
[Rope1_Seg01]
11 -0.000010 -0.000105 0.000114 105.011108 -2.298511 -79.767281 0.000156
12 -0.000010 -0.000112 0.000111 105.124054 -2.795002 -80.376534 0.000157
[Rope1_Seg02]
11 139.999863 -0.000179 0.000000 -2.362747 -1.598786 -1.795916 139.999863
12 139.999863 -0.000179 0.000000 -2.257922 -1.167035 -2.063050 139.999863
[Rope1_Seg03]
11 139.999924 0.000060 -0.000060 -2.855849 -2.102079 -2.014337 139.999924
12 139.999924 0.000060 -0.000060 -2.614377 -1.564104 -2.263359 139.999924
[Rope1_Seg04]
11 139.999924 -0.000060 -0.000119 -1.745751 -0.938735 -1.655988 139.999924
12 139.999924 -0.000060 -0.000119 -1.635410 -0.614053 -1.893970 139.999924
[Rope1_Seg05]
11 139.999832 0.000119 -0.000060 1.406574 1.674160 0.348687 139.999832
12 139.999832 0.000119 -0.000060 1.097480 1.374483 0.227515 139.999832
[Rope1_Seg06]
11 139.999954 0.000119 -0.000060 0.501635 0.659100 0.078730 139.999954
12 139.999954 0.000119 -0.000060 0.377645 0.535722 0.023206 139.999954
[Rope1_Seg07]
11 139.999985 0.000060 0.000000 0.189542 0.293490 -0.022580 139.999985
12 139.999985 0.000060 0.000000 0.135068 0.244070 -0.057400 139.999985
[Rope1_Seg09]
11 121.602913 0.000119 -0.000089 -89.793175 -1.359789 0.847147 121.602913
12 121.602913 0.000119 -0.000089 -89.793175 -1.359789 0.847147 121.602913
[L_mid_hand01]
11 103.859421 1.038730 8.195221 110.016693 -43.583393 -14.630751 104.187431
12 103.859421 1.038730 8.195221 111.216125 -46.770245 -16.325298 104.187431
[L_mid_hand02]
11 105.572853 -4.139662 -10.864139 -148.402451 33.171711 -41.059566 106.211075
12 105.572853 -4.139662 -10.864139 -150.384232 34.904911 -44.592556 106.211075
[L_mid_hand03]
11 104.641464 17.579376 -3.913581 -13.575850 13.082139 47.042397 106.179977
12 104.641464 17.579376 -3.913581 -12.781249 13.855401 50.452690 106.179977
[null_rope02_connect]
11 328.732849 0.000179 -0.000119 -153.115784 73.019737 -47.339802 328.732849
12 328.732849 0.000179 -0.000119 -154.657501 73.422646 -48.818851 328.732849
[Rope2_Seg01]
11 0.000086 0.000010 0.000000 -42.043739 -0.066154 -93.324585 0.000086
12 0.000087 -0.000001 0.000000 -42.525101 -0.721418 -93.438347 0.000087
[Rope2_Seg02]
11 139.999741 -0.000060 -0.000119 3.557753 5.287898 3.098706 139.999756
12 139.999741 -0.000060 -0.000119 3.360507 5.921927 2.583560 139.999756
[Rope2_Seg03]
11 140.000107 0.000030 0.000000 4.896639 8.140566 5.091050 140.000107
12 140.000107 0.000030 0.000000 4.410360 8.654664 4.331970 140.000107
[Rope2_Seg04]
11 139.999802 0.000000 -0.000060 -2.512835 -4.391108 -3.253954 139.999802
12 139.999802 0.000000 -0.000060 -2.210618 -4.223142 -2.976264 139.999802
[Rope2_Seg05]
11 139.999985 -0.000060 0.000119 -5.292609 -8.247361 -5.859054 139.999985
12 139.999985 -0.000060 0.000119 -4.673231 -8.231269 -5.132724 139.999985
[Rope2_Seg06]
11 139.999893 -0.000030 -0.000119 -2.337853 -2.669535 -2.383433 139.999893
12 139.999893 -0.000030 -0.000119 -2.086908 -2.678647 -2.097038 139.999893
[Rope2_Seg07]
11 139.999893 0.000060 -0.000060 -1.531012 -1.557025 -1.515971 139.999893
12 139.999893 0.000060 -0.000060 -1.374963 -1.572514 -1.334842 139.999893
[Rope2_Seg09]
11 121.338966 0.000089 -0.000060 33.793236 -1.359788 -0.847141 121.338966
12 121.338966 0.000089 -0.000060 33.793236 -1.359788 -0.847141 121.338966
[R_mid_hand01]
11 104.680779 11.144459 -10.335981 -36.116535 33.174706 39.598408 105.778534
12 104.680779 11.144459 -10.335981 -36.922554 32.243565 38.107742 105.778534
[R_mid_hand02]
11 104.070427 2.443552 8.231699 69.680679 -44.419243 15.065832 104.424065
12 104.070427 2.443552 8.231699 70.193451 -42.958271 14.324638 104.424065
[R_mid_hand03]
11 106.028137 -11.221827 -5.996406 -170.354065 12.593579 -49.350628 106.788818
12 106.028137 -11.221827 -5.996406 -170.013962 12.325404 -47.779564 106.788818
[spine02]
11 129.756927 0.001550 0.000119 0.530191 -4.024908 -15.374445 129.756927
12 129.756927 0.001550 0.000119 0.537560 -4.023919 -15.444612 129.756927
[spine03]
11 78.613998 0.081635 -4.899007 1.995888 3.780540 17.997084 78.766541
12 78.613991 0.081635 -4.899008 1.999596 3.776836 18.047235 78.766525
[pelvis]
11 169.435242 0.051022 0.000000 -0.070208 -0.177785 17.188129 169.435257
12 169.435242 0.051022 0.000000 -0.070348 -0.177729 17.278177 169.435257
[null_rope03_connect]
11 -1.257226 -2.466202 137.391083 0.000000 -89.526878 58.928837 137.418976
12 -1.257226 -2.466202 137.391083 0.000000 -89.530197 58.844486 137.418976
[null_rope04_connect]
11 -1.259640 -2.480268 -137.844437 0.000000 -89.526878 58.928837 137.872513
12 -1.259640 -2.480268 -137.844437 0.000000 -89.530197 58.844486 137.872513
[Rope3_Seg01]
11 0.000010 0.000038 -0.000114 16.913717 21.002094 -80.997375 0.000121
12 0.000010 0.000038 -0.000114 16.425587 20.651562 -82.369606 0.000121
[Rope3_Seg02]
11 139.999924 -0.000119 0.000060 0.154643 -1.743405 -6.141940 139.999924
12 139.999924 -0.000119 0.000060 0.113518 -1.805049 -6.151337 139.999924
[Rope3_Seg03]
11 139.999924 -0.000119 0.000119 -0.144361 -1.339242 -6.573528 139.999924
12 139.999924 -0.000119 0.000119 -0.205386 -1.377667 -6.671864 139.999924
[Rope3_Seg04]
11 139.999924 0.000119 0.000000 -1.935909 0.919061 -11.578732 139.999924
12 139.999924 0.000119 0.000000 -2.072959 0.594555 -11.713209 139.999924
[Rope3_Seg05]
11 139.999924 -0.000238 0.000060 1.353655 -3.510782 1.256669 139.999924
12 139.999924 -0.000238 0.000060 1.545468 -3.380057 2.019605 139.999924
[Rope3_Seg06]
11 139.999893 -0.000119 -0.000060 3.475513 -8.930166 15.913733 139.999893
12 139.999893 -0.000119 -0.000060 3.560248 -8.016549 17.149815 139.999893
[Rope3_Seg07]
11 139.999771 0.000060 -0.000119 1.323074 -6.035249 12.403123 139.999771
12 139.999771 0.000060 -0.000119 1.146481 -5.126572 12.879770 139.999771
[Rope3_Seg08]
11 139.999985 -0.000060 0.000000 0.544421 -3.244952 6.550512 139.999985
12 139.999985 -0.000060 0.000000 0.383641 -2.746320 6.798780 139.999985
[Rope3_Seg09]
11 90.185997 -0.000179 -0.000060 89.793228 -1.359877 -0.847183 90.185997
12 90.185997 -0.000179 -0.000060 89.793228 -1.359877 -0.847183 90.185997
[R_rear_hand01]
11 103.366196 -6.073594 -10.757982 -165.009155 19.819437 -41.100956 104.101845
12 103.366196 -6.073594 -10.757982 -164.755127 19.627697 -40.352161 104.101845
[R_rear_hand02]
11 100.509819 12.039542 -7.992327 -30.502344 25.155792 38.836960 101.543350
12 100.509819 12.039542 -7.992327 -30.792652 24.782450 38.141541 101.543350
[R_rear_hand03]
11 101.539970 5.215704 5.435467 82.364601 -41.773376 8.967985 101.819031
12 101.539970 5.215704 5.435467 82.448349 -41.048256 8.840383 101.819031
[Rope4_Seg01]
11 0.000010 0.000038 -0.000114 -92.590225 31.222635 -85.775055 0.000121
12 0.000010 0.000038 -0.000114 -92.505478 31.671038 -85.777481 0.000121
[Rope4_Seg02]
11 139.999985 0.000060 0.000119 -0.441895 0.126126 -4.948607 139.999985
12 139.999985 0.000060 0.000119 -0.485361 0.141990 -5.441291 139.999985
[Rope4_Seg03]
11 139.999924 0.000000 -0.000238 -0.597471 0.173691 -4.981241 139.999924
12 139.999924 0.000000 -0.000238 -0.676697 0.206875 -5.491477 139.999924
[Rope4_Seg04]
11 139.999985 0.000000 0.000119 -0.770589 0.453179 -4.998264 139.999985
12 139.999985 0.000000 0.000119 -0.940754 0.727344 -5.699445 139.999985
[Rope4_Seg05]
11 139.999802 -0.000060 -0.000119 -0.837715 0.124628 -4.845141 139.999802
12 139.999802 -0.000060 -0.000119 -0.894908 0.011474 -5.079471 139.999802
[Rope4_Seg06]
11 139.999924 0.000000 0.000060 -0.649034 -0.380685 -3.725966 139.999924
12 139.999924 0.000000 0.000060 -0.551113 -1.019626 -3.495704 139.999924
[Rope4_Seg07]
11 139.999802 0.000000 0.000000 -0.541182 -0.249487 -2.895682 139.999802
12 139.999802 0.000000 0.000000 -0.494143 -0.767321 -2.794655 139.999802
[Rope4_Seg08]
11 139.999924 0.000000 0.000119 -1.985296 -0.090964 -2.062016 139.999924
12 139.999924 0.000000 0.000119 -2.000100 -0.366022 -2.074528 139.999924
[Rope4_Seg09]
11 90.185791 0.000060 0.000060 -135.617828 2.228885 0.850567 90.185791
12 90.185791 0.000060 0.000060 -135.617828 2.228885 0.850567 90.185791
[L_rear_hand01]
11 101.696655 -8.392275 -7.654577 -28.015862 -27.942142 135.607529 102.329041
12 101.696655 -8.392275 -7.654577 -26.077669 -29.734318 131.595917 102.329041
[L_rear_hand02]
11 102.726799 -1.568258 5.773216 81.577332 47.415264 169.913025 102.900848
12 102.726799 -1.568258 5.773216 80.880585 51.310986 168.994995 102.900848
[L_rear_hand03]
11 104.552910 9.721220 -10.420293 -167.078079 -21.194330 -132.993347 105.519653
12 104.552910 9.721220 -10.420293 -168.606277 -22.023737 -128.845825 105.519653
